<svg width="46" height="47" viewBox="0 0 46 47" fill="none" xmlns="http://www.w3.org/2000/svg">
  <path d="M27.3995 22.9654C28.3596 21.4441 29.2175 20.0942 31.3199 18.9958C31.0977 18.8629 30.781 18.6586 30.6143 18.5488C29.7964 18.9024 28.9863 19.6076 28.2962 20.3216C26.7094 21.9538 26.8516 22.8951 25.177 23.53C24.7569 23.6871 24.2413 23.8595 23.5823 24.0089C23.1934 22.8237 22.2177 21.6473 21.1854 21.6473C20.4708 21.6473 19.6452 22.0164 18.6928 22.4316C17.5738 22.9182 16.5503 23.4751 16.2247 23.6871L16.6615 24.2681C16.9948 24.0869 17.955 23.6168 18.9151 23.2082C19.7485 22.8556 20.5019 22.5656 21.0109 22.5656C21.8277 22.5656 22.3599 23.4828 22.6533 24.2209C21.5821 24.4713 19.8196 24.535 19.2885 24.535C19.0429 24.535 18.9551 24.5735 18.8673 24.6438C18.7884 24.7152 18.7251 24.8404 18.6851 25.0128L18.6217 25.2798H19.1929C22.161 25.2798 24.9625 24.8173 26.7649 23.7343C27.0183 23.8046 27.2406 23.8518 27.5261 23.8518C28.5585 23.8518 29.622 23.2949 30.2887 22.7853C30.5265 22.604 30.5821 22.4393 30.5821 22.2591C30.5821 22.1735 30.5743 22.0944 30.5665 22.0164L30.5343 21.7099C29.582 22.4558 28.7885 23.0127 27.804 23.0127C27.6295 23.0127 27.5028 22.9973 27.3995 22.9654ZM33.3758 20.0162C32.1856 22.4953 30.3754 24.2989 28.5185 25.3424C27.6373 25.8366 26.8438 26.1585 25.1292 26.1585H21.4232C20.0974 26.1585 19.2651 26.3309 18.6139 26.4957C17.915 26.6758 17.4705 26.856 16.7648 26.856C15.7169 26.856 14.749 26.3463 14.2801 25.8597L15.1535 25.1776L14.7168 24.6053C14.4634 24.7855 11.3597 27.0526 10.7085 27.5622L10.6696 27.5392C10.6852 27.3821 10.6852 27.2404 10.6852 27.0998C10.6852 25.3742 9.87508 24.9579 8.64604 24.4713L7.8126 24.9579C9.50281 25.5148 9.92397 25.9619 9.92397 27.2096C9.92397 28.1982 9.56615 28.5903 9.05053 28.888C8.51824 29.1945 7.85927 29.335 7.28031 29.335C7.03473 29.335 6.9236 29.3823 6.83581 29.4691C6.74024 29.5624 6.69357 29.7041 6.69357 29.8996V30.1742H6.89137C7.95484 30.1742 8.9394 30.0106 10.0184 29.1703L13.5344 26.4561C14.0345 27.0207 15.2969 27.8061 16.7882 27.8061C17.6294 27.8061 18.1694 27.6018 18.9473 27.4052C19.5507 27.2558 20.1375 27.1229 21.4232 27.1229H25.1458C27.0505 27.1229 27.9706 26.7307 28.9863 26.1662C31.1933 24.9425 33.0746 22.871 34.1381 20.494C33.8603 20.3216 33.598 20.1645 33.3758 20.0162ZM18.6384 17.2153C19.6374 16.5167 20.6697 16.4387 21.5032 16.4387C22.0032 16.4387 22.59 16.509 23.2089 16.5881C23.709 16.6507 24.1613 16.6979 24.7013 16.6979C25.7882 16.6979 26.8838 16.3058 27.3595 16.1015C27.495 16.2663 27.7251 16.486 27.9073 16.643C27.6773 16.7836 26.2171 17.5679 24.7247 17.5679C24.0657 17.5679 23.439 17.4899 22.9 17.4196C22.4233 17.357 21.9077 17.3021 21.4076 17.3021C20.8598 17.3021 19.7563 17.458 19.074 17.7799L18.6384 17.2153ZM7.21697 17.0736C7.64591 17.0736 7.99484 16.933 8.32822 16.799C8.64603 16.6738 8.96274 16.5486 9.39168 16.5486C10.4074 16.5486 11.6609 17.0352 12.7643 17.4976C12.8277 17.5217 12.8999 17.5371 12.971 17.5371C13.1455 17.5371 13.2811 17.458 13.3677 17.2933L13.51 17.0352C12.2965 16.3366 10.3596 15.5919 9.35168 15.5919C8.89162 15.5919 8.55825 15.7094 8.24043 15.8346C7.88372 15.9763 7.57368 16.1246 7.24808 16.1246C6.44687 16.1246 4.39218 15.3403 4.39218 14.5791C4.39218 13.685 7.66147 13.3401 8.01929 13.3401L8.34377 12.6108C5.97126 12.6108 3.14536 13.4346 3.14536 14.5242C3.14536 14.8384 3.32871 14.9954 3.32871 15.2854C3.32871 15.6775 3.14536 15.9444 3.14536 16.3838C3.14536 16.6738 3.31982 17.0428 3.52651 17.3647C3.74876 17.7019 4.01102 17.9216 4.01102 18.2039C4.01102 18.4158 3.86767 18.6663 3.86767 19.1606C3.86767 20.2194 4.47885 20.8631 5.669 22.1262L5.90681 22.3767C4.92335 22.7534 3.08979 23.5377 2.66196 23.7189C1.17734 24.3307 0.803955 25.0754 0.803955 26.2518C0.803955 26.7077 0.803956 27.225 0.836183 27.6874H1.12177C1.7174 27.6874 1.78852 27.3349 1.78852 26.9976C1.78852 26.7703 1.78074 26.5111 1.78074 26.2288C1.78852 25.5774 1.81186 24.9975 2.87532 24.5262C3.30426 24.3384 5.40786 23.4916 6.97138 22.8325C7.43144 22.6359 7.85927 22.4711 8.336 22.4711C8.86717 22.4711 9.47836 22.6985 10.2407 23.1456C10.883 23.5223 11.5586 24.032 12.0898 24.6207L12.7643 24.1111C12.1854 23.4355 11.3842 22.8325 10.5818 22.3613C9.78062 21.8901 9.06609 21.6166 8.46268 21.6166C8.20153 21.6166 7.98706 21.6627 7.80371 21.7099C7.59035 21.7649 7.39144 21.8275 7.13807 21.8275C6.84359 21.8275 6.598 21.7572 6.24018 21.3497C6.10572 21.2003 5.24895 20.2348 5.0667 19.9536C4.97892 19.8196 4.82001 19.5527 4.82001 19.2385C4.82001 19.1056 4.84334 18.9486 4.92335 18.808C5.66122 19.3726 6.57356 19.7174 7.68481 19.8515L7.53479 19.1056C5.93903 18.6904 4.24105 17.3021 4.24105 16.4069C4.24105 16.219 4.28883 16.0861 4.35995 15.9214C4.97892 16.486 6.43132 17.0736 7.21697 17.0736ZM21.4465 13.4895H25.5026L25.2014 12.7668H21.8277L21.4465 13.4895ZM42.1613 8.35888C43.1136 7.95797 44.8205 7.28355 45.804 6.93097V5.97426C43.8282 6.69481 40.36 8.11504 37.9952 9.38589C38.0586 9.46498 38.4708 10.0372 38.5186 10.1075C39.5187 9.70003 40.4155 9.43312 41.2245 9.43312C42.3591 9.43312 43.2881 9.43312 44.8438 9.07285V8.3512C43.9704 8.50717 43.0425 8.6961 42.4391 8.6961C42.0824 8.6961 41.979 8.64886 41.979 8.53133C41.979 8.45994 42.0268 8.4138 42.1613 8.35888ZM40.0421 5.51073C39.4232 5.51073 39.2487 5.17352 39.2487 4.69462C39.2487 3.70606 39.8754 2.28692 40.2722 1.4785H39.312C38.812 2.43521 36.844 5.50305 35.7805 6.77389L36.3917 7.42524C36.9629 6.79696 37.5896 5.73041 38.273 4.67924H38.3997C38.3997 4.73416 38.3919 4.79677 38.3919 4.85169C38.3919 5.7381 38.852 6.39715 39.9866 6.39715C40.6855 6.39715 41.7801 6.05224 42.8125 5.70735C43.6692 5.41627 44.4549 5.11861 44.8438 5.00877V4.06743C44.3993 4.20034 43.4948 4.54634 42.558 4.86707C41.5745 5.20538 40.6055 5.51073 40.0421 5.51073ZM19.0429 21.2552L18.8517 20.5336C20.4864 19.6625 21.9788 18.9639 24.3602 18.7377C24.4069 19.6395 24.3435 20.7763 25.0181 20.7763C25.6381 20.7763 26.9872 19.2001 28.5418 17.223C28.6852 17.357 28.9152 17.4976 29.1219 17.6547L28.7252 18.1643C27.2094 20.0942 25.9148 21.7418 24.8514 21.7418C23.8601 21.7418 23.4868 20.5885 23.4712 19.7251C21.9555 19.8745 20.5264 20.3765 19.0429 21.2552ZM17.9627 20.9026C16.9159 21.4826 15.828 21.867 14.8679 21.867C13.7967 21.867 12.8443 21.4123 12.0498 20.2282C11.7164 19.7251 11.4553 19.098 11.1375 18.5411C10.7563 17.882 10.344 17.5294 9.62171 17.5294C8.96274 17.5294 8.32044 17.7963 7.63813 18.0863L7.66925 18.2346C7.72481 18.4785 7.82038 18.6509 8.0504 18.6509C8.15375 18.6509 8.2571 18.6037 8.31266 18.5883C8.69382 18.4708 8.97163 18.3686 9.35946 18.3686C9.95509 18.3686 10.2407 18.7135 10.6463 19.5604L10.7963 19.8745C10.384 20.0162 9.41502 20.0865 8.69382 20.0865H8.35155L8.40712 20.4237C8.43156 20.5643 8.48713 20.6829 8.60603 20.7379C8.74827 20.8082 8.95496 20.8158 9.31278 20.8158C10.2173 20.8158 10.8752 20.706 11.2564 20.6115C12.2331 22.0472 13.5744 22.5964 14.8679 22.5964C15.9714 22.5964 17.0904 22.1965 18.1617 21.6166L17.9627 20.9026ZM15.0102 20.6039C13.9389 20.6039 13.4633 20.1019 13.4633 19.467C13.4633 18.3532 15.4391 17.2625 17.2171 16.5881L17.6771 17.1757C16.5826 17.6074 14.3756 18.5334 14.3756 19.333C14.3756 19.6153 14.5423 19.8196 15.2091 19.8196C16.3681 19.8196 17.6138 19.2627 18.7651 18.7058C18.8517 18.6663 18.9551 18.6278 19.0507 18.6278C19.2007 18.6278 19.2962 18.674 19.4074 18.831L19.5985 19.0903C18.2572 19.8196 16.5826 20.6039 15.0102 20.6039ZM39.5421 41.0791C39.6454 40.1137 40.3922 39.392 41.5268 39.392C42.638 39.392 43.4081 40.1137 43.5103 41.0791H39.5421ZM41.519 37.6434C38.7642 37.6434 37.2173 39.7688 37.2173 42.0128C37.2173 44.4051 38.8753 46.5074 41.5345 46.5074C42.8603 46.5074 44.1615 46.0132 44.9072 45.1432C45.2328 44.7665 45.495 44.2403 45.495 43.9185C45.495 43.8087 45.4706 43.7142 45.4072 43.6439C45.3439 43.5659 45.2483 43.5187 45.0816 43.5187H43.8037C43.5503 43.5187 43.3759 43.6132 43.2492 43.801C42.8758 44.3425 42.3357 44.6248 41.5423 44.6248C40.3522 44.6248 39.5821 43.7307 39.5265 42.7498H45.0661C45.3117 42.7498 45.4872 42.6949 45.6062 42.5774C45.7406 42.4521 45.804 42.2709 45.804 41.9337C45.804 40.9067 45.4784 39.8402 44.7961 39.024C44.0982 38.2002 43.0192 37.6434 41.519 37.6434ZM45.0183 36.4428C45.185 36.4428 45.3117 36.3956 45.4072 36.3176C45.5106 36.2231 45.5584 36.0979 45.5584 35.909V35.1796C45.5584 34.8973 45.5028 34.7557 45.4072 34.6546C45.3206 34.5601 45.1772 34.5052 45.0183 34.5052C44.8916 34.5052 44.7649 34.5206 44.5505 34.5448L38.2175 35.1643C38.0341 35.1796 37.9474 35.2346 37.8841 35.3049C37.8119 35.3839 37.7807 35.4861 37.7807 35.6267V36.0353C37.7807 36.1913 37.8119 36.2627 37.8674 36.3253C37.9396 36.4033 38.043 36.4428 38.1852 36.4428H45.0183ZM18.1372 10.704C18.1372 10.626 18.1461 10.5315 18.1772 10.4371C18.2406 10.2339 18.3761 10.0372 18.7095 10.0372C18.8595 10.0372 19.0262 10.0768 19.1618 10.1701C19.2807 10.2492 19.3285 10.3514 19.3285 10.4524C19.3285 10.7907 18.7562 11.1829 18.4706 11.1829C18.265 11.1829 18.1372 10.9863 18.1372 10.704ZM16.2725 5.86442C16.2725 5.52611 16.4792 5.15815 16.8759 5.15815C17.0504 5.15815 17.2571 5.22845 17.4071 5.37014C17.4949 5.44813 17.5349 5.5349 17.5349 5.62057C17.5349 5.8095 17.3516 5.98963 17.1371 6.11485C16.9715 6.20931 16.7959 6.27192 16.6459 6.27192C16.3992 6.27192 16.2725 6.12254 16.2725 5.86442ZM24.328 3.57315C24.328 3.29855 24.4713 2.80427 24.9869 2.80427C25.1614 2.80427 25.3281 2.84382 25.4626 2.90643C25.6537 2.9921 25.7804 3.11842 25.7804 3.25132C25.7804 3.39302 25.6381 3.53361 25.4237 3.70606C25.2014 3.88729 24.9158 4.05206 24.6847 4.05206C24.4069 4.05206 24.328 3.79283 24.328 3.57315ZM3.97101 9.66049C3.86767 9.70003 3.81988 9.7231 3.76432 9.7231C3.67764 9.7231 3.63764 9.6528 3.63764 9.59788C3.63764 9.54296 3.66097 9.51111 3.71654 9.46498C4.69332 8.71147 5.5501 8.41381 6.73247 8.21719L6.87582 8.68731L3.97101 9.66049ZM9.35168 6.02039L8.92385 5.76227C9.20055 5.11091 9.54281 4.51448 9.94731 4.06743C10.2329 3.7456 10.5029 3.48748 10.8041 3.22826C10.8752 3.17334 10.9152 3.1261 10.9874 3.1261C11.0663 3.1261 11.1219 3.18871 11.1219 3.25132C11.1219 3.28318 11.1052 3.32162 11.0741 3.36885C10.5907 4.11466 9.64616 5.58982 9.35168 6.02039ZM3.72543 3.39302C3.6532 3.33041 3.63764 3.29087 3.63764 3.24363C3.63764 3.18871 3.67764 3.1261 3.76432 3.1261C3.79655 3.1261 3.82766 3.1338 3.86767 3.14917C4.45552 3.38533 4.95558 3.65993 5.40008 3.99714C5.77235 4.27943 6.13795 4.62433 6.49466 5.04062L6.16128 5.41627C5.74901 5.07906 4.41551 3.97297 3.72543 3.39302ZM9.54281 10.4766C9.66172 10.28 10.0184 9.80218 10.1618 9.6528C9.55059 8.42918 8.55047 7.26049 8.11375 6.79696L7.74926 7.15064C8.16931 7.75477 8.87606 8.92346 9.54281 10.4766ZM13.8044 41.0791C13.9078 40.1137 14.6534 39.392 15.788 39.392C16.8993 39.392 17.6694 40.1137 17.7727 41.0791H13.8044ZM35.0826 14.0299C35.026 13.9596 34.9793 13.9278 34.9148 13.9278C34.8204 13.9278 34.7726 13.9915 34.7726 14.0618C34.7726 14.1716 34.8515 14.3045 35.0504 14.634C35.6538 15.6468 36.3995 16.6661 37.3196 17.6228C38.3119 18.6663 39.4787 19.6395 40.7244 20.5105L41.1134 20.7763C41.1689 20.8159 41.2089 20.8389 41.2567 20.8389C41.3356 20.8389 41.3912 20.7609 41.3912 20.6983C41.3912 20.6588 41.3756 20.6203 41.3278 20.5808C40.1699 19.5373 38.9231 18.2665 37.7563 17.0428C36.844 16.0773 35.9072 15.058 35.0826 14.0299ZM14.7168 13.5521C14.2645 14.1562 13.6455 14.9482 13.1688 15.7874C13.3199 15.8577 13.82 16.1246 13.9945 16.219C14.5423 15.4029 15.3046 14.399 15.8047 13.6378C16.257 12.948 16.4392 12.6492 16.4714 11.7233C16.4792 11.5673 16.4792 11.4179 16.4948 11.2696C16.5348 10.7907 16.6615 10.3042 17.1215 9.85711C17.4627 9.5199 17.955 9.34745 18.4472 9.34745C18.924 9.34745 19.2007 9.48036 19.6141 9.48036C19.9074 9.48036 20.1219 9.41006 20.3119 9.33866L20.463 9.28374L20.0974 10.1471L20.9553 10.492C20.4075 10.8292 19.2096 12.2813 19.2096 13.9992C19.2096 14.6187 19.304 15.1909 19.4396 15.7017C19.4551 15.7566 19.4863 15.8115 19.5741 15.8115C19.6541 15.8115 19.7096 15.7643 19.7174 15.6775L19.7252 15.4974C19.7485 14.9713 19.7885 14.1398 20.003 13.3951C20.3597 12.1396 21.3198 10.9632 22.2799 10.3986L20.9153 9.80987L21.5032 8.38964L20.8598 8.52365C20.4708 8.60163 20.1852 8.67193 19.8441 8.67193C19.6218 8.67193 19.3674 8.64117 19.0662 8.57088C18.8362 8.51486 18.5906 8.46873 18.2406 8.46873C17.6138 8.46873 16.9393 8.70379 16.4792 9.14315C15.638 9.93509 15.5902 10.7907 15.5347 11.5508C15.4624 12.5636 15.2724 12.814 14.7168 13.5521ZM12.891 8.2095C12.5187 8.73454 12.2487 8.99376 11.3997 9.98233C10.2807 11.2927 9.69283 12.3516 8.71715 14.7054C8.87606 14.689 9.10609 14.6736 9.35946 14.6736C9.48725 14.6736 9.5906 14.6736 9.75728 14.6813L9.87507 14.4308C10.4229 13.2698 11.1608 11.7002 12.1931 10.492L12.5498 10.0768C13.6144 8.84438 14.2723 8.11504 14.6857 6.43668C14.8279 5.84025 14.9468 5.30643 15.3524 4.92199C15.7169 4.57709 16.177 4.42881 16.6459 4.42881C17.0426 4.42881 17.336 4.52217 17.7649 4.70341C18.1539 4.86707 18.2961 4.89892 18.7095 4.89892C18.8517 4.89892 18.9551 4.89124 19.0507 4.88355L18.495 5.62057L19.2485 6.14561C18.3039 6.42131 17.8038 7.32309 17.6383 7.73939C17.606 7.82506 17.5905 7.87998 17.5905 7.9349C17.5905 7.99751 17.6216 8.06012 17.7172 8.06012C17.8205 8.06012 17.8994 7.98213 18.035 7.82506C18.495 7.27586 18.8595 6.89911 20.5586 6.37407L19.3596 5.47998L20.2641 4.16959H19.4151C18.8762 4.16959 18.5184 4.16189 18.0505 3.9499C17.4149 3.65993 17.0904 3.53361 16.5259 3.53361C15.8358 3.53361 15.2091 3.77746 14.6934 4.24757C14.0978 4.78909 13.9156 5.51073 13.7011 6.30378C13.5344 6.91559 13.3366 7.59001 12.891 8.2095ZM34.0981 45.6518C34.0981 45.8561 34.1614 46.0055 34.257 46.123C34.3759 46.2647 34.5426 46.3515 34.7882 46.3515H35.7327C35.9783 46.3515 36.145 46.2647 36.265 46.123C36.3595 46.0055 36.4228 45.8561 36.4228 45.6518V35.3839C36.4228 35.1796 36.3595 35.0314 36.265 34.9127C36.145 34.7721 35.9783 34.6854 35.7327 34.6854H34.7882C34.5426 34.6854 34.3759 34.7721 34.257 34.9127C34.1614 35.0314 34.0981 35.1796 34.0981 35.3839V45.6518ZM29.2408 37.941H28.7963C28.6296 37.941 28.5029 37.9882 28.4074 38.0662C28.304 38.1607 28.2573 38.287 28.2573 38.4748V39.0164C28.2573 39.2042 28.304 39.3294 28.4074 39.4239C28.5029 39.5018 28.6296 39.5491 28.7963 39.5491H29.2408V43.4638C29.2408 44.4677 29.5186 45.096 30.0342 45.598C30.511 46.0604 31.1299 46.3515 32.2089 46.3515H32.8835C33.0502 46.3515 33.1768 46.3042 33.2724 46.2252C33.3758 46.1307 33.4391 46.0055 33.4391 45.8177V45.1344C33.4391 44.9466 33.3758 44.8214 33.2724 44.7269C33.1768 44.6479 33.0502 44.6017 32.8835 44.6017H32.789C32.3601 44.6017 32.0656 44.4919 31.8678 44.303C31.63 44.0844 31.51 43.7461 31.51 43.3067V39.5491H32.9557C33.1213 39.5491 33.2491 39.5018 33.3435 39.4239C33.4469 39.3294 33.4947 39.2042 33.4947 39.0164V38.4748C33.4947 38.287 33.4469 38.1607 33.3435 38.0662C33.2491 37.9882 33.1213 37.941 32.9557 37.941H31.5189V35.3839C31.5189 35.1796 31.4555 35.0314 31.3599 34.9127C31.241 34.7721 31.0744 34.6854 30.8277 34.6854H29.9309C29.6853 34.6854 29.5186 34.7721 29.3997 34.9127C29.3041 35.0314 29.2408 35.1796 29.2408 35.3839V37.941ZM10.5818 2.05955C10.7485 1.69818 11.1141 1.44775 11.5497 1.44775C12.1454 1.44775 12.6221 1.90249 12.6221 2.50661C12.6221 2.8592 12.4554 3.16565 12.1931 3.35347C12.2487 3.55777 12.2887 3.73792 12.2887 3.91037C12.2887 4.56941 11.892 5.03183 11.1608 5.27567C11.0663 5.67549 10.8919 6.03687 10.6063 6.30378C10.1296 6.75852 9.64616 6.75852 9.64616 6.94635C9.64616 7.0485 9.71728 7.1111 9.91508 7.1111C10.7963 7.1111 11.6609 6.62451 11.7642 5.81719C12.6054 5.5349 13.1133 4.69462 13.1133 4.02789C13.1133 3.85544 13.0977 3.70606 13.0266 3.56546C13.2566 3.34578 13.5266 2.96903 13.5266 2.41214C13.5266 1.92555 13.3122 1.43127 12.931 1.071C12.5976 0.749165 12.1298 0.537173 11.582 0.537173C10.7885 0.537173 10.2729 0.961156 9.97953 1.37635C9.11387 1.37635 7.99484 2.32537 7.99484 3.683H7.87594C7.79593 3.21288 7.30476 2.89874 6.89137 2.87457C6.558 1.88711 5.80457 1.03914 4.56553 1.03914C4.42329 1.03914 4.24883 1.04683 4.0977 1.071C3.73321 0.741476 3.32871 0.537173 2.7642 0.537173C1.68517 0.537173 0.803955 1.39173 0.803955 2.47475C0.803955 3.14917 1.11399 3.6127 1.70073 4.0202C1.70073 4.0202 1.69295 4.10698 1.69295 4.14542C1.69295 5.00876 2.64529 6.3576 4.0588 6.3576C4.0588 6.57728 4.33661 6.87605 4.64554 6.93097V7.04081H4.52664C2.58195 7.04081 1.7563 7.96676 1.7563 8.58625C1.17733 8.82131 0.803955 9.45729 0.803955 10.0449C0.803955 11.2136 1.66962 12.0451 2.81198 12.0451C3.19314 12.0451 3.58208 11.8968 3.85211 11.6925C4.04991 11.7628 4.30439 11.8024 4.56553 11.8024C5.11338 11.8024 5.72456 11.6145 6.15351 10.9939C6.21685 11.0016 6.27241 11.0016 6.33575 11.0016C7.03472 11.0016 7.63813 10.5469 7.95484 9.95047C8.03485 9.80218 8.06596 9.68466 8.06596 9.59788C8.06596 9.51111 8.02707 9.44081 7.93928 9.44081C7.82816 9.44081 7.8126 9.54296 7.61368 9.7231C7.16919 10.1229 6.48688 10.2723 5.7879 10.2723C5.44675 10.7666 5.0267 11.0258 4.54219 11.0258C4.18548 11.0258 3.90767 10.9313 3.62208 10.7435C3.39205 10.9939 3.10535 11.0961 2.82754 11.0961C2.2008 11.0961 1.7563 10.6644 1.7563 10.0372C1.7563 9.59788 2.04189 9.20575 2.4386 9.05637C2.51083 8.2798 3.35205 7.75477 4.39995 7.75477C4.53442 7.75477 4.66999 7.76245 4.81223 7.77783C4.97114 7.5274 5.3523 7.26048 5.89125 7.19019C6.00238 7.17371 6.09016 7.16602 6.15351 7.13527C6.21685 7.10341 6.24907 7.0408 6.24907 6.96941C6.24907 6.9068 6.22463 6.85188 6.16128 6.81344C6.10572 6.78158 6.01015 6.76621 5.89903 6.74314C5.40008 6.64868 4.80445 6.34222 4.50219 5.59641C3.30426 5.59641 2.42304 4.64849 2.42304 3.58084V3.51055C2.02633 3.35347 1.7563 2.97672 1.7563 2.52967C1.7563 1.94203 2.22524 1.47082 2.81976 1.47082C3.17758 1.47082 3.48651 1.64326 3.68542 1.90249C3.85211 1.85525 4.04213 1.83988 4.22438 1.83988C5.11338 1.83988 6.06683 2.39677 6.24907 3.47869C7.39143 3.58084 7.66147 4.53865 7.73259 4.93847C7.77259 5.14277 7.80371 5.31522 7.93928 5.31522C8.08263 5.31522 8.11375 5.15815 8.16153 4.94615C8.24821 4.54634 8.39934 4.22451 8.7016 3.97297C8.7016 2.94597 9.47836 2.05955 10.5818 2.05955ZM24.2969 37.6434C22.1221 37.6434 20.6931 38.6627 20.6931 40.2949C20.6931 40.8748 20.9075 41.345 21.2565 41.714C21.661 42.1457 22.241 42.4445 23.0823 42.6554L24.8992 43.1112C25.3992 43.2364 25.8437 43.3847 25.8437 43.8164C25.8437 44.4831 25.1292 44.7116 24.368 44.7116C23.9946 44.7116 23.6057 44.6402 23.289 44.4831C23.0656 44.3733 22.8756 44.2173 22.7411 44.0053C22.6222 43.8252 22.5822 43.6911 22.3988 43.589C22.2888 43.5264 22.1533 43.5187 21.971 43.5187H20.9876C20.7731 43.5187 20.6697 43.5813 20.5975 43.6681C20.5264 43.7538 20.5019 43.8801 20.5019 44.0053C20.5019 44.3183 20.6142 44.7116 20.8753 45.0641C21.4787 45.8649 22.7411 46.5074 24.3524 46.5074C25.9393 46.5074 28.1373 45.8561 28.1373 43.7538C28.1373 43.2122 27.9784 42.7498 27.6851 42.3731C27.3117 41.8953 26.7805 41.5657 25.8759 41.3384L24.0746 40.8825C23.3278 40.6947 22.9789 40.5618 22.9789 40.106C22.9789 39.6666 23.3756 39.314 24.2969 39.314C24.8358 39.314 25.3281 39.4315 25.6459 39.7611C25.9071 40.0357 25.8604 40.1774 26.066 40.2872C26.1938 40.3498 26.336 40.3498 26.5582 40.3498H27.455C27.5984 40.3498 27.7006 40.3256 27.7806 40.24C27.844 40.1686 27.884 40.0587 27.884 39.8786C27.884 39.4711 27.6139 38.945 27.1372 38.5451C26.5027 38.0036 25.5026 37.6434 24.2969 37.6434ZM15.7802 37.6434C13.0266 37.6434 11.4786 39.7688 11.4786 42.0128C11.4786 44.4051 13.1377 46.5074 15.7958 46.5074C17.1215 46.5074 18.4228 46.0132 19.1696 45.1432C19.4952 44.7665 19.7563 44.2403 19.7563 43.9185C19.7563 43.8087 19.733 43.7142 19.6696 43.6439C19.6063 43.5659 19.5107 43.5187 19.344 43.5187H18.0661C17.8116 43.5187 17.6383 43.6132 17.5105 43.801C17.1371 44.3425 16.5981 44.6248 15.8047 44.6248C14.6134 44.6248 13.8433 43.7307 13.7878 42.7498H19.3118C19.5585 42.7498 19.733 42.6949 19.8519 42.5774C19.9874 42.4521 20.0508 42.2709 20.0508 41.9337C20.0508 40.9067 19.7252 39.8402 19.0429 39.024C18.3439 38.2002 17.2804 37.6434 15.7802 37.6434ZM37.8285 11.1752C34.8759 6.82113 32.2812 5.35366 31.55 4.66387C30.7488 3.90267 30.1376 3.03933 29.7486 2.62414C28.8841 1.6905 27.7651 0.537173 25.9237 0.537173C24.1457 0.537173 22.9711 1.68281 22.59 2.67137C22.4789 2.95366 22.3911 3.29856 22.3122 3.42377C22.1377 3.70606 21.352 5.03183 21.0265 5.55797H22.4955L21.781 6.89142C22.6144 6.71128 23.2089 6.57728 24.0024 6.57728C24.7091 6.57728 25.217 6.74314 25.4392 7.1814C25.8515 7.99751 25.8515 10.4689 26.5505 12.3285C27.2005 14.0772 28.7885 15.7874 30.5743 17.0978C30.5976 17.1131 30.6221 17.1208 30.6532 17.1208C30.741 17.1208 30.7965 17.0582 30.7965 16.9956C30.7965 16.9484 30.781 16.9176 30.741 16.8781C29.2486 15.4029 28.034 13.7718 27.3839 11.9825C26.7405 10.2415 26.8438 7.79321 26.2804 6.7036C25.9071 5.98195 25.1136 5.79302 24.3835 5.79302C23.7957 5.79302 23.2489 5.91055 22.9945 5.96547L23.6379 4.89124H22.55C22.78 4.49142 23.0189 4.12235 23.1378 3.90267C23.2412 3.71485 23.2801 3.47869 23.4079 3.15686C23.8201 2.12985 24.7325 1.4785 25.9237 1.4785C27.415 1.4785 28.2885 2.42752 29.153 3.37764C29.5508 3.8159 30.2009 4.73416 30.9555 5.41627C31.4711 5.88749 32.4545 6.41362 33.9714 7.95797C34.8437 8.85207 35.8594 10.0131 36.9317 11.5673C40.7644 17.1131 43.2803 22.001 44.6849 25.8136L44.6616 25.829C40.6378 23.1302 37.154 20.5808 34.3437 17.435C32.3523 15.1986 30.6221 12.6108 29.1141 9.3079C29.0108 9.08822 28.923 8.88392 28.8285 8.67193C28.7885 8.58626 28.7485 8.56209 28.6852 8.56209C28.6063 8.56209 28.5507 8.61701 28.5507 8.6961C28.5507 8.78177 28.5896 8.97069 28.6774 9.34745C29.4786 12.7668 31.7011 15.8346 34.0747 18.384C36.4395 20.918 39.1142 23.0983 41.3123 24.6833L43.0269 29.5317C43.0658 29.6492 43.1136 29.7744 43.1136 29.8919C43.1136 29.9787 43.0903 30.049 43.0347 30.0962C42.9869 30.1435 42.9236 30.1665 42.7802 30.1665H42.2646C42.0424 30.1665 41.9557 30.1358 41.8757 30.0732C41.7968 30.0106 41.7412 29.9161 41.7012 29.8063C41.5501 29.3504 40.6455 26.801 40.4711 26.2837C40.4388 26.1892 40.3833 26.1585 40.3199 26.1585C40.241 26.1585 40.1855 26.2211 40.1855 26.2914C40.1855 26.354 40.2088 26.4254 40.2488 26.6451C40.4789 27.8061 40.7489 29.1077 40.86 29.602C40.9078 29.8293 40.9634 30.0413 40.9634 30.1984C40.9634 30.3401 40.9311 30.4181 40.8122 30.5356L40.2799 31.0694C40.1533 31.1946 40.0821 31.2265 39.9788 31.2265C39.8521 31.2265 39.7488 31.1397 39.701 30.92C39.0976 28.1356 38.1852 24.6833 37.9474 23.7266C37.8919 23.5146 37.8519 23.3971 37.7252 23.3971C37.6141 23.3971 37.574 23.4751 37.574 23.5695C37.574 23.6398 37.5896 23.7266 37.5985 23.7892C37.7407 24.7778 38.3208 28.3783 38.9476 31.6659C39.0587 32.2304 39.2731 32.5435 39.7643 32.5435C39.9866 32.5435 40.201 32.4578 40.4 32.2689C40.7244 31.9481 40.82 31.8614 41.2089 31.4846C41.4868 31.2177 41.6768 31.109 42.1535 31.109H43.3281C43.6059 31.109 43.757 31.0376 43.8915 30.9124C44.0182 30.7948 44.0982 30.6301 44.0982 30.3939C44.0982 30.1512 44.0348 29.9556 43.9471 29.7118C43.6459 28.9122 42.6769 26.2057 42.3913 25.4445L42.4158 25.4291C43.4081 26.1738 44.8516 27.1229 45.4872 27.1229C45.685 27.1229 45.804 27.0372 45.804 26.7307C45.804 25.2874 43.3759 19.3495 37.8285 11.1752ZM8.54269 34.9446C8.43156 35.0775 8.36822 35.2269 8.36822 35.4861V42.6081H8.32822C8.32822 42.6081 4.38329 35.6585 4.19326 35.3367C4.0588 35.1093 3.90767 34.9523 3.70876 34.8347C3.51096 34.7249 3.30426 34.6546 2.90755 34.6546H1.60517C1.30402 34.6546 1.11399 34.7557 0.979533 34.9127C0.867297 35.0467 0.803955 35.195 0.803955 35.4542V45.5507C0.803955 45.8089 0.867297 45.9582 0.979533 46.0923C1.11399 46.2493 1.30402 46.3515 1.60517 46.3515H2.34414C2.64529 46.3515 2.83643 46.2493 2.97089 46.0923C3.08201 45.9582 3.14536 45.8089 3.14536 45.5507V38.2552H3.18536C3.18536 38.2552 7.28031 45.4255 7.447 45.6924C7.67703 46.0681 8.06596 46.3515 8.62159 46.3515H9.88397C10.1851 46.3515 10.3762 46.2493 10.5107 46.0923C10.6218 45.9582 10.6852 45.8089 10.6852 45.5507V36.4428H27.265C27.4317 36.4428 27.5584 36.3956 27.6539 36.3176C27.7562 36.2231 27.804 36.0979 27.804 35.909V35.2192C27.804 35.0303 27.7562 34.905 27.6539 34.8106C27.5584 34.7326 27.4317 34.6854 27.265 34.6854H9.16943C8.86717 34.6854 8.67715 34.7875 8.54269 34.9446Z" fill="#63513D" />
</svg>