<svg width="325" height="69" viewBox="0 0 325 69" fill="none" xmlns="http://www.w3.org/2000/svg">
<path d="M39.4922 55H30.4688L12.832 24.3262V55H4.42383V11.8164H13.8867L31.084 41.9629V11.8164H39.4922V55ZM67.7344 50.4883C67.6562 50.5859 67.4609 50.8789 67.1484 51.3672C66.8359 51.8555 66.4648 52.2852 66.0352 52.6562C64.7266 53.8281 63.457 54.6289 62.2266 55.0586C61.0156 55.4883 59.5898 55.7031 57.9492 55.7031C53.2227 55.7031 50.0391 54.0039 48.3984 50.6055C47.4805 48.7305 47.0215 45.9668 47.0215 42.3145V23.0664H55.5762V42.3145C55.5762 44.1309 55.791 45.498 56.2207 46.416C56.9824 48.0371 58.4766 48.8477 60.7031 48.8477C63.5547 48.8477 65.5078 47.6953 66.5625 45.3906C67.1094 44.1406 67.3828 42.4902 67.3828 40.4395V23.0664H75.8496V55H67.7344V50.4883ZM112.383 55H101.982L96.4746 45.4199L90.9375 55H80.8008L91.6992 38.8281L81.2695 23.125H91.4941L96.8262 32.3828L102.041 23.125H111.973L101.484 38.6816L112.383 55ZM131.953 49.0527V55.293L127.998 55.4395C124.053 55.5762 121.357 54.8926 119.912 53.3887C118.975 52.4316 118.506 50.957 118.506 48.9648V29.3066H114.053V23.3594H118.506V14.4531H126.768V23.3594H131.953V29.3066H126.768V46.1816C126.768 47.4902 126.934 48.3105 127.266 48.6426C127.598 48.9551 128.613 49.1113 130.312 49.1113C130.566 49.1113 130.83 49.1113 131.104 49.1113C131.396 49.0918 131.68 49.0723 131.953 49.0527Z" fill="#00DC82"/>
<path d="M164.473 53.9453C162.09 55.4102 159.16 56.1426 155.684 56.1426C149.961 56.1426 145.273 54.1602 141.621 50.1953C137.812 46.2109 135.908 40.7617 135.908 33.8477C135.908 26.8555 137.832 21.25 141.68 17.0312C145.527 12.8125 150.615 10.7031 156.943 10.7031C162.432 10.7031 166.836 12.0996 170.156 14.8926C173.496 17.666 175.41 21.1328 175.898 25.293H167.021C166.338 22.3437 164.668 20.2832 162.012 19.1113C160.527 18.4668 158.877 18.1445 157.061 18.1445C153.584 18.1445 150.723 19.4629 148.477 22.0996C146.25 24.7168 145.137 28.6621 145.137 33.9355C145.137 39.248 146.348 43.0078 148.77 45.2148C151.191 47.4219 153.945 48.5254 157.031 48.5254C160.059 48.5254 162.539 47.6562 164.473 45.918C166.406 44.1602 167.598 41.8652 168.047 39.0332H158.057V31.8262H176.045V55H170.068L169.16 49.6094C167.422 51.6602 165.859 53.1055 164.473 53.9453ZM185.215 26.5234C187.422 23.7109 191.211 22.3047 196.582 22.3047C200.078 22.3047 203.184 22.998 205.898 24.3848C208.613 25.7715 209.971 28.3887 209.971 32.2363V46.8848C209.971 47.9004 209.99 49.1309 210.029 50.5762C210.088 51.6699 210.254 52.4121 210.527 52.8027C210.801 53.1934 211.211 53.5156 211.758 53.7695V55H202.676C202.422 54.3555 202.246 53.75 202.148 53.1836C202.051 52.6172 201.973 51.9727 201.914 51.25C200.762 52.5 199.434 53.5645 197.93 54.4434C196.133 55.4785 194.102 55.9961 191.836 55.9961C188.945 55.9961 186.553 55.1758 184.658 53.5352C182.783 51.875 181.846 49.5312 181.846 46.5039C181.846 42.5781 183.359 39.7363 186.387 37.9785C188.047 37.0215 190.488 36.3379 193.711 35.9277L196.553 35.5762C198.096 35.3809 199.199 35.1367 199.863 34.8438C201.055 34.3359 201.65 33.5449 201.65 32.4707C201.65 31.1621 201.191 30.2637 200.273 29.7754C199.375 29.2676 198.047 29.0137 196.289 29.0137C194.316 29.0137 192.92 29.502 192.1 30.4785C191.514 31.2012 191.123 32.1777 190.928 33.4082H182.871C183.047 30.6152 183.828 28.3203 185.215 26.5234ZM191.426 48.9648C192.207 49.6094 193.164 49.9316 194.297 49.9316C196.094 49.9316 197.744 49.4043 199.248 48.3496C200.771 47.2949 201.562 45.3711 201.621 42.5781V39.4727C201.094 39.8047 200.557 40.0781 200.01 40.293C199.482 40.4883 198.75 40.6738 197.812 40.8496L195.938 41.2012C194.18 41.5137 192.92 41.8945 192.158 42.3438C190.869 43.1055 190.225 44.2871 190.225 45.8887C190.225 47.3145 190.625 48.3398 191.426 48.9648ZM225.996 23.0664V55H217.529V23.0664H225.996ZM225.996 11.5527V19.2578H217.529V11.5527H225.996ZM249.141 29.248C246.309 29.248 244.365 30.4492 243.311 32.8516C242.764 34.1211 242.49 35.7422 242.49 37.7148V55H234.17V23.125H242.227V27.7832C243.301 26.1426 244.316 24.9609 245.273 24.2383C246.992 22.9492 249.17 22.3047 251.807 22.3047C255.107 22.3047 257.803 23.1738 259.893 24.9121C262.002 26.6309 263.057 29.4922 263.057 33.4961V55H254.502V35.5762C254.502 33.8965 254.277 32.6074 253.828 31.709C253.008 30.0684 251.445 29.248 249.141 29.248Z" fill="#35495E"/>
<path d="M290.301 5L265.956 25H278.128V55H302.473V25H314.645L290.301 5Z" fill="#00DC82"/>
</svg>
