
<svg width="56" height="25" viewBox="0 0 56 25" fill="none" xmlns="http://www.w3.org/2000/svg">
  <path d="M22.5923 24.5102C20.7157 24.409 19.3154 23.6346 18.4964 22.2451C17.947 21.3124 17.7798 20.0856 18.0311 18.8321C18.3097 17.4432 19.2554 16.1917 20.7069 15.2915C21.541 14.7738 22.2549 14.4525 23.7085 13.9401C24.074 13.8113 24.3894 13.6927 24.4098 13.6761C24.4389 13.653 24.443 13.5708 24.4285 13.3041C24.3867 12.5454 24.5129 11.3633 24.7266 10.5103C25.086 9.07477 25.7776 7.9167 26.6956 7.21425C27.3545 6.70954 28.2182 6.33005 29.0782 6.16733C29.5531 6.0777 30.3484 6.07797 30.7953 6.16816C32.7101 6.55482 33.7848 8.03502 33.3616 9.70275C33.2725 10.0544 32.9909 10.6308 32.7524 10.9496C32.1417 11.7665 31.2229 12.493 29.9254 13.1841C29.7624 13.2713 29.2283 13.5344 28.7391 13.7694C28.2499 14.0041 27.8343 14.2117 27.8151 14.231C27.7879 14.2583 27.7947 14.338 27.8475 14.6061C28.0909 15.8455 28.5001 16.8927 29.1989 18.0638C29.4766 18.5299 29.8608 19.1176 29.9045 19.1449C29.9678 19.184 30.2263 18.7651 30.3949 18.3506C30.6033 17.8376 30.7227 17.1592 30.6638 16.8221C30.6215 16.5808 30.49 16.326 30.3223 16.1613C30.2453 16.0852 30.1815 16.0132 30.1812 16.0014C30.1809 15.9898 30.8321 15.9832 31.6288 15.9873L33.0772 15.9948L33.069 16.179C33.0577 16.4308 32.9645 16.9678 32.8663 17.35C32.5894 18.4248 32.0674 19.344 31.1651 20.3479C31.0587 20.4662 30.9715 20.5823 30.9715 20.6061C30.9715 20.6298 31.1211 20.7944 31.3037 20.972C32.4442 22.0807 34.4643 23.3593 36.1091 24.0132C36.2689 24.0769 36.3992 24.1417 36.3987 24.1572C36.3981 24.1759 35.4485 24.1881 33.6236 24.193L30.8494 24.2002L30.6916 24.1111C30.3693 23.9294 29.6557 23.351 28.9701 22.7156C28.8249 22.581 28.6874 22.471 28.6646 22.471C28.6417 22.471 28.4803 22.565 28.3065 22.68C27.4158 23.2691 26.3513 23.7984 25.4509 24.0996C24.4268 24.4424 23.5815 24.5634 22.5923 24.5102ZM24.9281 22.0998C25.3434 22.0256 25.8535 21.8744 26.3227 21.6866C26.7943 21.498 27.3789 21.2095 27.3998 21.1549C27.4081 21.1334 27.3 20.9522 27.16 20.7519C26.5146 19.8297 25.8252 18.5326 25.3618 17.3693C25.191 16.9405 24.872 15.9906 24.811 15.7303C24.7917 15.6472 24.7568 15.572 24.7334 15.5629C24.6688 15.538 24.1389 15.8213 23.681 16.1258C22.0536 17.2077 21.2734 18.5285 21.4466 19.9086C21.5236 20.5219 21.7172 20.969 22.0695 21.3466C22.7207 22.0443 23.7388 22.3127 24.9281 22.0998ZM27.6905 12.5032C28.2928 12.1496 29.2481 11.2911 29.7824 10.6236C30.4664 9.76949 30.8299 8.97245 30.8302 8.32598C30.8302 7.95641 30.7779 7.79094 30.6074 7.61994C30.4378 7.45005 30.2464 7.37973 29.954 7.37945C29.0867 7.37945 28.1487 8.41203 27.74 9.81693C27.5338 10.5252 27.4837 10.9063 27.4823 11.7715C27.4812 12.4323 27.492 12.5793 27.5415 12.5793C27.5522 12.5793 27.6193 12.5451 27.6905 12.5032ZM42.0353 24.4937C40.6062 24.3494 39.6643 24.1351 38.6017 23.7132C37.1557 23.1384 36.2529 22.4266 35.4903 21.2602C35.2621 20.9111 34.8958 20.178 34.7478 19.7729C34.0865 17.9678 33.9413 15.6952 34.3353 13.3245C34.7344 10.9251 35.6432 8.61253 36.8972 6.80497C37.7107 5.63284 38.921 4.39838 40.1703 3.46619C42.2333 1.92725 44.608 0.981271 47.246 0.648662C48.0463 0.547721 48.4945 0.521796 49.4397 0.522347C50.8694 0.523175 51.9584 0.63239 53.3964 0.918941C54.3138 1.10207 55.7752 1.49756 55.8032 1.57065C55.8175 1.6076 54.8916 4.58371 54.8534 4.6237C54.8415 4.63611 54.6994 4.54096 54.5379 4.41134C53.2375 3.37159 51.8897 2.73864 50.5268 2.52821C50.0915 2.46091 49.2733 2.46009 48.8465 2.52655C46.9358 2.82331 45.1643 4.04757 43.5916 6.15823C43.0806 6.84386 42.5177 7.76281 42.0799 8.62549C41.4867 9.79487 41.0789 10.8285 40.6664 12.2108C39.3524 16.6087 39.2859 19.6813 40.4684 21.3446C40.9554 22.03 41.6674 22.4666 42.5708 22.6334C43.0894 22.7294 44.3484 22.6712 44.4738 22.5457C44.4938 22.5259 45.1085 20.5972 45.8394 18.2599C47.0406 14.4205 47.1704 13.9875 47.1842 13.7699C47.2023 13.4776 47.1481 13.2164 47.017 12.9649C46.8979 12.7362 46.5833 12.426 46.324 12.2817C46.212 12.2194 46.1202 12.1587 46.1199 12.1471C46.1196 12.1355 48.1348 12.1259 50.5986 12.1259C53.062 12.1259 55.0778 12.1355 55.0775 12.1471C55.0775 12.1587 54.9683 12.2186 54.8349 12.2795C54.1375 12.5994 53.6321 13.0788 53.3315 13.7059C53.2663 13.8416 52.7026 15.5979 51.8559 18.3023L50.4855 22.6792L50.0895 22.8695C48.4767 23.6459 46.5035 24.2049 44.5354 24.4435C44.1737 24.4876 42.3381 24.5243 42.0356 24.4937H42.0353ZM0.804867 24.1737C0.795792 24.1594 0.855467 24.1089 0.937142 24.0618C1.42389 23.7807 1.97032 23.1977 2.20187 22.7117C2.26897 22.5711 8.41329 2.94549 8.54887 2.4383C8.57279 2.34949 8.59287 2.16195 8.59314 2.02185C8.59507 1.59381 8.46252 1.2852 8.15039 0.988993C8.06514 0.908185 7.99557 0.830135 7.99557 0.815518C7.99557 0.776631 18.7247 0.77994 19.2167 0.819103C20.282 0.903773 21.3485 1.18784 22.1641 1.60374C23.5567 2.31391 24.3905 3.39172 24.6468 4.8129C24.7183 5.20839 24.7321 6.08818 24.6735 6.514C24.4348 8.24986 23.6505 10.0911 22.5827 11.4232C20.8529 13.581 18.024 14.9608 14.5521 15.3403C13.4516 15.4605 12.0647 15.4909 11.0827 15.4159C10.7989 15.3941 10.5608 15.3822 10.5536 15.3894C10.5187 15.4247 8.30357 22.5526 8.27827 22.7117C8.20017 23.2024 8.45207 23.754 8.88629 24.043C8.97209 24.1001 9.03479 24.1588 9.02599 24.1732C9.00399 24.2088 0.826592 24.209 0.804592 24.1735L0.804867 24.1737ZM12.9835 13.5868C13.7901 13.4434 14.5018 13.1439 15.1885 12.6593C15.522 12.424 16.2073 11.7376 16.49 11.3556C17.1973 10.4005 17.7176 9.27361 18.1373 7.78928C18.4046 6.8433 18.5184 6.12265 18.5182 5.37993C18.5182 4.80738 18.4665 4.4654 18.3229 4.08176C18.1098 3.51252 17.6758 3.0627 17.1245 2.83931C16.6509 2.64735 16.2467 2.59688 15.2743 2.60819L14.5411 2.61646L12.8369 8.05846C11.9 11.0517 11.1383 13.5151 11.1446 13.5327C11.1512 13.5504 11.2689 13.5802 11.4058 13.5989C11.5433 13.6177 11.6745 13.6375 11.6979 13.6433C11.8046 13.6695 12.7544 13.6276 12.9835 13.5868Z" fill="#165EAA" />
</svg>